<svg xmlns="http://www.w3.org/2000/svg" viewBox="0 0 100 100" fill="#059669" aria-hidden="true">
  {/* Rehal Stand Lower Right Leg with Hand/Arch Cutout */}
  <path
    d="M 51.83 67.02 L 52.51 67.92 L 54.04 68.49 L 57.25 70.86 L 60.81 72.78 L 62.67 74.24 L 63.29 74.36 L 64.03 75.15 L 65.55 75.71 L 66.28 76.50 L 69.62 78.19 L 70.35 78.99 L 70.97 79.10 L 72.83 80.57 L 75.03 81.58 L 77.80 83.50 L 79.72 84.23 L 81.53 83.56 L 81.58 81.47 L 81.13 80.96 L 81.13 80.11 L 80.68 79.61 L 80.68 78.53 L 80.23 77.40 L 77.97 75.77 L 73.74 73.62 L 72.55 72.38 L 71.93 72.27 L 69.45 69.78 L 69.33 69.16 L 68.03 67.87 L 67.98 67.36 L 66.68 65.61 L 67.41 64.65 L 68.60 64.59 L 70.91 65.95 L 71.87 66.00 L 72.61 66.79 L 74.02 67.30 L 74.30 67.75 L 75.65 68.43 L 76.28 68.43 L 77.74 67.41 L 77.97 65.66 L 77.29 64.70 L 77.46 63.97 L 75.82 62.39 L 74.86 62.11 L 73.45 60.87 L 71.70 60.08 L 69.62 58.38 L 67.53 57.42 Z"
    fill-rule="evenodd"
  />

  {/* Rehal Stand Cross Beam */}
  <path
    d="M 12.55 37.21 L 13.68 38.34 L 41.17 54.26 L 45.29 57.76 L 47.21 58.27 L 54.37 57.82 L 56.35 55.39 L 87.00 37.38 L 84.97 35.58 L 83.33 35.07 L 75.37 39.36 L 64.59 43.65 L 60.64 45.74 L 55.90 49.13 L 53.02 52.00 L 50.08 55.84 L 49.24 55.84 L 46.53 52.23 L 42.75 48.45 L 37.33 44.84 L 30.22 41.39 L 22.14 38.46 L 15.99 34.84 Z"
    fill-rule="evenodd"
  />

  {/* Book Hardcover Frame & Left Rehal Leg with Hand Cutout */}
  <path
    d="M 17.80 83.56 L 20.06 84.23 L 92.19 39.92 L 93.94 37.72 L 82.88 19.04 L 81.07 18.14 L 79.61 19.55 L 89.26 37.95 L 55.39 59.17 L 47.21 60.13 L 44.16 59.17 L 10.23 37.84 L 19.72 19.32 L 17.52 18.19 L 6.51 35.52 L 6.00 38.74 L 33.55 55.96 L 22.09 63.97 L 21.58 66.96 L 23.50 68.66 L 30.72 64.59 L 32.13 64.65 L 32.64 65.83 L 26.94 72.72 L 19.15 77.52 Z"
    fill-rule="evenodd"
  />

  {/* Left Quran Book Page Leaf */}
  <path
    d="M 25.98 16.10 L 22.03 24.12 L 22.03 24.74 L 20.00 28.41 L 20.00 29.26 L 18.64 31.12 L 18.64 31.97 L 17.74 33.15 L 17.80 33.88 L 21.47 35.92 L 22.31 35.92 L 27.34 38.40 L 28.18 38.40 L 31.40 39.98 L 32.25 39.98 L 38.46 43.20 L 40.32 44.67 L 40.94 44.78 L 41.67 45.57 L 42.30 45.68 L 43.71 47.15 L 44.21 47.21 L 48.62 51.83 L 48.56 28.07 L 45.91 24.97 L 45.29 24.85 L 44.33 23.84 L 41.62 22.03 L 39.25 20.85 L 37.72 20.62 L 34.73 19.49 L 33.66 19.49 L 32.25 18.59 L 29.37 17.68 L 26.83 16.10 Z"
    fill-rule="evenodd"
  />

  {/* Right Quran Book Page Leaf */}
  <path
    d="M 73.45 15.71 L 69.28 18.14 L 68.43 18.14 L 67.92 18.59 L 61.20 20.62 L 56.35 22.93 L 55.62 23.72 L 54.77 24.06 L 51.44 27.39 L 50.93 28.41 L 50.93 33.32 L 50.71 33.60 L 50.71 41.45 L 50.93 41.73 L 50.71 42.18 L 50.93 44.44 L 50.71 51.61 L 50.93 51.89 L 51.16 51.33 L 55.90 46.58 L 56.75 46.25 L 59.06 44.33 L 60.70 43.59 L 60.98 43.14 L 61.60 43.14 L 61.88 42.69 L 62.50 42.69 L 62.79 42.24 L 65.49 40.88 L 66.79 40.66 L 67.30 40.21 L 67.92 40.21 L 68.20 39.75 L 71.08 38.85 L 73.40 37.50 L 74.24 37.50 L 77.24 35.92 L 78.99 35.47 L 79.27 35.01 L 81.58 34.00 L 81.30 32.36 L 80.23 30.84 L 80.40 30.33 L 79.55 29.03 L 79.55 28.41 L 79.10 28.13 L 77.74 25.42 L 77.29 23.67 L 75.71 20.90 L 75.26 19.15 Z"
    fill-rule="evenodd"
  />
</svg>
